<?xml version="1.0" encoding="UTF-8"?>
<svg id="Layer_65" data-name="Layer 65" xmlns="http://www.w3.org/2000/svg" viewBox="0 0 431.04 296.32">
  <defs>
    <style>
      .cls-1 {
        fill: #ffebde;
      }

      .cls-1, .cls-2, .cls-3, .cls-4, .cls-5, .cls-6, .cls-7 {
        stroke: #570060;
      }

      .cls-1, .cls-3, .cls-4, .cls-5, .cls-6 {
        stroke-linecap: round;
        stroke-linejoin: round;
      }

      .cls-2, .cls-3 {
        stroke-width: .56px;
      }

      .cls-2, .cls-3, .cls-4, .cls-5, .cls-6, .cls-7 {
        fill: none;
      }

      .cls-2, .cls-7 {
        stroke-miterlimit: 10;
      }

      .cls-4 {
        stroke-width: .11px;
      }

      .cls-5 {
        stroke-width: 1.12px;
      }

      .cls-6 {
        stroke-width: 2px;
      }

      .cls-8 {
        fill: #570060;
        stroke-width: 0px;
      }
    </style>
  </defs>
  <path class="cls-1" d="M397.2,211.98c18.49-8.14,31.78-27.01,33.2-47.16,1.33-18.8-6.8-36.78-12.31-54.81-3.07-10.07-8.56-22.91-8.09-33.64.03-.6-.73-.87-1.12-.41-15.54,18.69-32.26,36.4-50.04,52.98-3.39,3.16-7.38,5.61-11.72,7.24-5.29,1.98-7.48,2.44-13.26,1.4,5.26-3.31,5.39-10.82,4.66-16.99-2.3-19.56-7.08-38.83-14.19-57.19-10.34-26.67-28.27-53.48-55.93-60.78-14.01-3.7-28.84-1.89-43.13.57-33.65,5.79-66.69,15.05-98.45,27.59-6.74,2.66-13.53,5.54-19.07,10.21-6.78,5.72-11.18,13.69-16.58,20.72-14.79,19.25-38.02,32.63-46.42,55.41-5.06,13.7-4.11,29.54-11.7,42.02-7.53,12.38-21.92,18.88-31.62,29.58-1.52,1.68-1.12,4.34.8,5.54l3.86,2.42c1.2,3-7.92,9.9,5.93,7.04,14.8-3.05,30.94.95,43.74,8.99,6.2,3.9,11.41,9.15,17.01,13.88,12.19,10.29,26.25,18.09,40.21,25.83,13.66,7.57,27.33,15.13,40.99,22.7,14.82,8.2,29.87,16.5,46.24,20.7.72.19,1.24-.68.76-1.24-3.72-4.34-6.41-10.45-7.89-15.74,1.44-.03,2.89-.05,4.34-.07,1.81-.03,3.13-1.73,2.72-3.49l-.59-2.49c27.31,8.28,55.26,7.09,83.64,4.06,17.42-1.86,36.62-10.89,42.56-22.76,3.99-7.97,6.22-14.72,6.48-23.63.57-19.78,5.24-39.42,13.65-57.33,5.25,1.05,10.29,5.16,14.38,8.61,12.22,10.3,24.73,19.99,36.95,30.28Z"/>
  <path class="cls-7" d="M79.88,74.89c13.17-8.16,27.89-13.8,43.14-16.52,21.98-3.91,44.61-1.76,66.61,2.08,27.36,4.77,54.86,12.41,77.71,28.21,22.86,15.81,60.73,52.52,67.13,48.72"/>
  <path class="cls-7" d="M346.15,173.28c-13.73-.85-24.17,10.12-34.01,19.73-23.18,22.64-45.27,48.08-75.15,60.63-40.82,17.14-87.42,6.82-130.23-4.49"/>
  <path class="cls-2" d="M386.91,102.68c2.04,11.17-4.22,21.96-9.77,31.86-1.58,2.83-3.16,5.76-3.63,8.96-.39,2.61-.02,5.29.63,7.85,1.87,7.38,6,13.98,8.43,21.19,2.43,7.21,2.83,15.92-2.11,21.72-.42.49-.9,1.03-.86,1.68s1.01,1.13,1.33.57"/>
  <path class="cls-2" d="M123.05,52.36c7.65-11.69,18.78-21.16,31.58-26.78-9.08,10.55-19.7,19.52-31.58,26.78h0Z"/>
  <path class="cls-2" d="M139.87,49.39c11.31-13.76,26.01-24.82,42.37-31.86-12.93,12.18-27.11,22.78-42.37,31.86h0Z"/>
  <path class="cls-2" d="M118.16,183.49c14.87-23.03,33.89-43.45,55.79-59.94-17.61,20.93-36.22,40.83-55.79,59.94h0Z"/>
  <path class="cls-2" d="M122.93,185.33c13.77-18.99,31.39-35.3,51.4-47.53-16.1,16.99-33.22,32.79-51.4,47.53h0Z"/>
  <path class="cls-2" d="M125.53,192.75c13.77-18.99,31.39-35.3,51.4-47.53-16.1,16.99-33.22,32.79-51.4,47.53h0Z"/>
  <path class="cls-2" d="M128.5,196.46c12.53-15.71,28.59-28.69,46.57-37.66-14.37,13.97-29.93,26.49-46.57,37.66h0Z"/>
  <path class="cls-2" d="M129.5,200.08c12.74-12.68,28.57-22.33,45.67-27.87-14.17,10.98-29.45,20.24-45.67,27.87h0Z"/>
  <path class="cls-2" d="M131.62,203.21c11.72-9.78,26.16-16.37,41.22-18.8-12.83,8.18-26.65,14.44-41.22,18.8h0Z"/>
  <path class="cls-2" d="M133.84,206.92c10.68-7.55,23.69-11.83,36.77-12.12-11.45,6.24-23.87,10.27-36.77,12.12h0Z"/>
  <path class="cls-2" d="M135.33,212.11c10.07-6.04,22.11-8.76,33.8-7.66-10.6,4.97-22.11,7.52-33.8,7.66h0Z"/>
  <path class="cls-2" d="M152.74,49.39c14.55-15.99,32.52-28.99,52.27-37.8-16.41,14-33.86,26.55-52.27,37.8h0Z"/>
  <path class="cls-2" d="M252.06,72.65c15.95-14.6,35.04-25.89,55.51-32.86-17.63,12.44-36.14,23.34-55.51,32.86h0Z"/>
  <path class="cls-2" d="M263.76,78.42c14.62-13.03,32.27-22.8,51.09-28.24-16.15,11-33.2,20.38-51.09,28.24h0Z"/>
  <path class="cls-2" d="M272.07,87.17c14.06-12.04,31.03-20.8,49-25.23-15.47,10.08-31.82,18.47-49,25.23h0Z"/>
  <path class="cls-2" d="M282.44,94c12.27-9.9,27.25-16.55,42.83-18.96-13.41,8.2-27.76,14.51-42.83,18.96h0Z"/>
  <path class="cls-2" d="M291.98,102.3c9.91-8.66,22.53-14.27,35.61-15.77-10.91,7.27-22.91,12.55-35.61,15.77h0Z"/>
  <path class="cls-2" d="M303.34,107.81c6.33-6.79,15.49-10.87,24.78-10.97-7.12,5.87-15.66,9.63-24.78,10.97h0Z"/>
  <path class="cls-2" d="M307.3,114.74c6.33-6.79,15.49-10.87,24.78-10.97-7.12,5.87-15.66,9.63-24.78,10.97h0Z"/>
  <path class="cls-2" d="M314.32,120.31c4.28-5.71,11.54-8.94,18.64-8.25-4.94,5.06-11.59,7.97-18.64,8.25h0Z"/>
  <path class="cls-2" d="M319.37,125.9c2.14-4.56,7.49-6.95,12.31-5.45-2.67,4.18-7.43,6.26-12.31,5.45h0Z"/>
  <path class="cls-2" d="M165.6,50.38c17.52-17.55,38.46-31.82,61.17-41.76-19.52,15.22-39.92,29.06-61.17,41.76h0Z"/>
  <path class="cls-2" d="M182.43,50.38c20.29-18.09,43.86-32.63,69.09-42.75-22.26,15.53-45.3,29.68-69.09,42.75h0Z"/>
  <path class="cls-2" d="M198.26,52.36c20.29-18.09,43.86-32.63,69.09-42.75-22.26,15.53-45.3,29.68-69.09,42.75h0Z"/>
  <path class="cls-2" d="M213.11,56.32c20.29-18.09,43.86-32.63,69.09-42.75-22.26,15.53-45.3,29.68-69.09,42.75h0Z"/>
  <path class="cls-2" d="M226.96,62.63c19.66-17.64,42.57-31.78,67.11-41.52-21.58,15.16-43.96,28.91-67.11,41.52h0Z"/>
  <path class="cls-2" d="M241.81,66.73c17.74-16.29,38.69-29.21,61.17-37.85-19.52,14.04-39.93,26.58-61.17,37.85h0Z"/>
  <path class="cls-2" d="M104.24,59.29c7.65-11.69,18.78-21.16,31.58-26.78-9.08,10.55-19.7,19.52-31.58,26.78h0Z"/>
  <path class="cls-2" d="M328.37,182.38c2.63-3.93,7.79-5.51,12.15-3.64-2.73,3.97-7.69,5.44-12.15,3.64h0Z"/>
  <path class="cls-2" d="M324.08,187.41c3.18-3.5,8.51-4.31,12.56-1.83-3.28,3.53-8.41,4.26-12.56,1.83h0Z"/>
  <path class="cls-2" d="M318.45,191.48c4.98-3.17,11.5-3.37,16.64-.45-5.05,3.18-11.42,3.34-16.64.45h0Z"/>
  <path class="cls-2" d="M312.14,196.68c6.89-3.07,15.01-3.13,21.91-.09-6.96,3.09-14.93,3.1-21.91.09h0Z"/>
  <path class="cls-2" d="M306.21,202.99c8.69-2.64,18.29-2.2,26.67,1.3-8.77,2.65-18.2,2.17-26.67-1.3h0Z"/>
  <path class="cls-2" d="M300.34,207.67c10.77-1.7,22.1.12,31.71,5.32-10.84.85-21.75-.94-31.71-5.32h0Z"/>
  <path class="cls-2" d="M180.96,263.66c6.7-.32,13.32,2.64,17.51,7.88-6.74.32-13.27-2.65-17.51-7.88h0Z"/>
  <path class="cls-2" d="M151.35,262.03c15.22,4.96,29.49,12.87,41.72,23.2-15.26-4.96-29.45-12.88-41.72-23.2h0Z"/>
  <path class="cls-2" d="M137.81,260.48c16.22,5.79,31.44,14.5,44.6,25.62-16.28-5.79-31.38-14.5-44.6-25.62h0Z"/>
  <path class="cls-2" d="M294.77,213.98c12.41-.34,24.97,3.03,35.42,9.77-12.35-.88-24.38-4.15-35.42-9.77h0Z"/>
  <path class="cls-2" d="M288.84,220.66c14.03,1.17,27.81,6.2,39.13,14.59-13.77-2.73-26.96-7.6-39.13-14.59h0Z"/>
  <path class="cls-2" d="M282.53,227.71c15.74,2.81,30.85,9.63,43.21,19.79-15.24-4.69-29.73-11.28-43.21-19.79h0Z"/>
  <path class="cls-2" d="M274.73,235.87c16.23,3.42,31.71,10.87,44.33,21.65-15.64-5.39-30.49-12.59-44.33-21.65h0Z"/>
  <path class="cls-2" d="M266.2,242.93c16.23,3.42,31.71,10.87,44.33,21.65-15.64-5.39-30.49-12.59-44.33-21.65h0Z"/>
  <path class="cls-2" d="M258.78,248.49c16.23,3.41,31.71,10.87,44.33,21.65-15.64-5.39-30.49-12.59-44.33-21.65h0Z"/>
  <path class="cls-2" d="M246.05,255.28c16.46,1.99,32.53,8.08,46.04,17.72-16.05-4.01-31.46-9.89-46.04-17.72h0Z"/>
  <path class="cls-2" d="M228.26,260.41c16.58.47,33.13,5.05,47.47,13.41-16.35-2.52-32.24-6.96-47.47-13.41h0Z"/>
  <path class="cls-2" d="M203.77,265.56c16.57-.52,33.38,3.05,48.19,10.53-16.47-1.53-32.6-5.01-48.19-10.53h0Z"/>
  <path class="cls-2" d="M157.99,260.86c13.59,2.58,26.5,9.11,36.48,18.69-13.11-4.26-25.38-10.52-36.48-18.69h0Z"/>
  <path class="cls-2" d="M389.62,108.29c3.9-8.76,11.33-15.88,20.25-19.39-4.89,8.18-11.89,14.82-20.25,19.39h0Z"/>
  <path class="cls-2" d="M389.21,117.47c5.23-8.03,13.69-13.9,23.05-15.96-6.12,7.31-14.08,12.76-23.05,15.96h0Z"/>
  <path class="cls-2" d="M386.24,128.46c7.25-8.36,17.42-14.17,28.31-16.17-8.08,7.5-17.76,12.97-28.31,16.17h0Z"/>
  <path class="cls-2" d="M377.34,140.17c12.21-9.26,26.79-15.41,41.93-17.79-12.95,8.14-27.1,14.07-41.93,17.79h0Z"/>
  <path class="cls-2" d="M378.12,146.28c13.95-6.34,29.53-9.14,44.82-8.12-14.42,5.09-29.53,7.75-44.82,8.12h0Z"/>
  <path class="cls-2" d="M379.98,153.8c14.82-3.91,30.64-4.06,45.54-.49-15.07,2.6-30.42,2.69-45.54.49h0Z"/>
  <path class="cls-2" d="M381.62,161.53c15.2-1.97,30.91-.08,45.23,5.38-15.28.64-30.51-1.25-45.23-5.38h0Z"/>
  <path class="cls-2" d="M384.74,168.45c13.82.67,27.44,5.16,38.98,12.78-13.68-1.83-26.84-6.23-38.98-12.78h0Z"/>
  <path class="cls-2" d="M387.92,177.85c10.7,1.98,20.67,7.62,27.89,15.75-10.45-2.87-20-8.33-27.89-15.75h0Z"/>
  <path class="cls-2" d="M385.99,188.42c8.49,2.51,15.81,8.56,19.91,16.4-8.19-3.25-15.12-9.02-19.91-16.4h0Z"/>
  <path class="cls-3" d="M138.74,216.36c10.3,1.28,20.87.31,30.77-2.82-2.1-.92-2.78-4.06-1.25-5.77,1.23-1.37,3.69-2.33,3.22-4.12-.13-.49-.49-.89-.74-1.34-.91-1.59-.41-3.68.71-5.12,1.12-1.44,2.76-2.38,4.35-3.28-2.18-1.7-4.54-4.78-2.69-6.84,1.28-1.43,4.16-1.51,4.36-3.42.09-.82-.44-1.56-.84-2.27-1.8-3.21-1.28-7.56,1.24-10.25-1.51.86-3.53-.58-3.82-2.3s.63-3.41,1.72-4.78c.76-.97,1.65-1.91,1.92-3.11s-.44-2.72-1.67-2.77c1.49-2.91,2.97-5.82,4.46-8.73-.86-.22-1.73-.44-2.59-.66.58-2.18,1.15-4.35,1.73-6.53-1.26.65-2.07-1.58-1.46-2.86s1.68-2.76.88-3.93c-.33-.48-.91-.74-1.3-1.18-1.29-1.48.25-3.68,1.7-5-2.39.28-3.63-2.87-3.44-5.28.19-2.4.86-5.16-.75-6.96-8.06,3.42-14.45,9.76-20.63,15.96-4.79,4.81-9.59,9.61-14.38,14.42-7.09,7.11-14.23,14.27-19.78,22.63-3.9,5.87-7.53,12.75-14.14,15.18,4.28.01,8.55.17,12.16,2.45,1.94,1.22,3.46,3,4.84,4.83,4.64,6.14,8.06,13.44,8.38,21.12.02.41.04.87.34,1.17.24.25.61.31.96.36,1.66.25,4.09.98,5.75,1.19Z"/>
  <path class="cls-4" d="M106.06,184.81c-.66.37-1.32.73-1.97,1.1,1.77,1.14,3.92,1.68,6.02,1.52-.76.76-1.52,1.52-2.27,2.28,1.16,1.29,3.16,1.73,4.76,1.06-.64.36-1.31.74-1.7,1.36s-.39,1.55.2,1.98c.27.2.62.26.95.32,1.77.3,3.54.6,5.31.9-.96.39-1.77,1.14-2.23,2.08-.14.3-.25.66-.1.95.17.33.58.43.94.49,1.9.32,3.84.41,5.77.28-1.32.32-2.53,1.11-3.36,2.19-.47.61-.79,1.54-.25,2.09.35.36.92.38,1.43.36,1.4-.03,2.81-.06,4.21-.1-1.25.48-2.42,1.18-3.43,2.06-.25.21-.5.48-.5.8.02.57.76.77,1.34.8,2.27.13,4.53.25,6.8.38-1.4.34-2.76.8-4.08,1.39-.38.17-.77.37-1,.72-.6.94.49,2.15,1.59,2.35s2.27-.12,3.34.19c-1.78.22-3.46,1.16-4.59,2.55,2.53.36,5.1.45,7.65.27"/>
  <path class="cls-6" d="M56.65,129.89c-1.53.05-3.23.67-3.93,2.28-.27.62-.35,1.32-.34,2.01.07,2.9,2,5.45,4.33,6.4,2.67,1.09,10.31.32,9.76-4.54-.45-3.92-7.13-6.25-9.82-6.15Z"/>
  <path class="cls-5" d="M56.11,122.66c-2.64.13-5.58,1.61-6.77,5.49-.46,1.48-.61,3.18-.58,4.85.12,6.99,3.44,13.14,7.46,15.44,4.6,2.64,17.79.76,16.83-10.94-.77-9.46-12.3-15.06-16.93-14.83Z"/>
  <path class="cls-3" d="M56.82,116.57c-3.5.18-7.39,2.26-8.98,7.7-.61,2.08-.81,4.47-.77,6.81.16,9.81,4.56,18.45,9.88,21.67,6.1,3.7,23.57,1.07,22.3-15.36-1.03-13.28-16.29-21.15-22.43-20.82Z"/>
  <path class="cls-8" d="M61.63,200.66c18.71-7.97,32.89-25.67,36.03-45.81,1.13-6.64,1.2-13.48.09-20.14-.02-.12.06-.23.18-.25,8.9,11.26,9.29,26.86,9.29,40.68-.23-13.81-.86-28.84-9.43-40.33,0,0,.39-.17.39-.17,1.15,6.7,1.15,13.6.02,20.31-3.29,20.2-17.58,38.1-36.57,45.72h0Z"/>
</svg>